<svg width="20" height="17" viewBox="0 0 20 17" fill="none" xmlns="http://www.w3.org/2000/svg">
<g id="users 1">
<path id="Vector" d="M3 7.18286C4.10313 7.18286 5 6.28599 5 5.18286C5 4.07974 4.10313 3.18286 3 3.18286C1.89688 3.18286 1 4.07974 1 5.18286C1 6.28599 1.89688 7.18286 3 7.18286ZM17 7.18286C18.1031 7.18286 19 6.28599 19 5.18286C19 4.07974 18.1031 3.18286 17 3.18286C15.8969 3.18286 15 4.07974 15 5.18286C15 6.28599 15.8969 7.18286 17 7.18286ZM18 8.18286H16C15.45 8.18286 14.9531 8.40474 14.5906 8.76411C15.85 9.45474 16.7437 10.7016 16.9375 12.1829H19C19.5531 12.1829 20 11.736 20 11.1829V10.1829C20 9.07974 19.1031 8.18286 18 8.18286ZM10 8.18286C11.9344 8.18286 13.5 6.61724 13.5 4.68286C13.5 2.74849 11.9344 1.18286 10 1.18286C8.06563 1.18286 6.5 2.74849 6.5 4.68286C6.5 6.61724 8.06563 8.18286 10 8.18286ZM12.4 9.18286H12.1406C11.4906 9.49536 10.7688 9.68286 10 9.68286C9.23125 9.68286 8.5125 9.49536 7.85938 9.18286H7.6C5.6125 9.18286 4 10.7954 4 12.7829V13.6829C4 14.511 4.67188 15.1829 5.5 15.1829H14.5C15.3281 15.1829 16 14.511 16 13.6829V12.7829C16 10.7954 14.3875 9.18286 12.4 9.18286ZM5.40938 8.76411C5.04688 8.40474 4.55 8.18286 4 8.18286H2C0.896875 8.18286 0 9.07974 0 10.1829V11.1829C0 11.736 0.446875 12.1829 1 12.1829H3.05938C3.25625 10.7016 4.15 9.45474 5.40938 8.76411Z" fill="white"/>
</g>
</svg>
